<?xml version="1.0" standalone="no"?><svg xmlns="http://www.w3.org/2000/svg" viewBox="0 0 1440 320"><path fill="#a2d9ff" fill-opacity="1" d="M0,288L20,256C40,224,80,160,120,128C160,96,200,96,240,128C280,160,320,224,360,213.3C400,203,440,117,480,106.7C520,96,560,160,600,176C640,192,680,160,720,138.7C760,117,800,107,840,128C880,149,920,203,960,218.7C1000,235,1040,213,1080,176C1120,139,1160,85,1200,101.3C1240,117,1280,203,1320,208C1360,213,1400,139,1420,101.3L1440,64L1440,320L1420,320C1400,320,1360,320,1320,320C1280,320,1240,320,1200,320C1160,320,1120,320,1080,320C1040,320,1000,320,960,320C920,320,880,320,840,320C800,320,760,320,720,320C680,320,640,320,600,320C560,320,520,320,480,320C440,320,400,320,360,320C320,320,280,320,240,320C200,320,160,320,120,320C80,320,40,320,20,320L0,320Z"></path></svg>